<?xml version="1.0" encoding="utf-8"?>
<!-- Generator: Adobe Illustrator 16.0.0, SVG Export Plug-In . SVG Version: 6.00 Build 0)  -->
<!DOCTYPE svg PUBLIC "-//W3C//DTD SVG 1.1//EN" "http://www.w3.org/Graphics/SVG/1.1/DTD/svg11.dtd">
<svg version="1.1" id="Layer_1" xmlns="http://www.w3.org/2000/svg" xmlns:xlink="http://www.w3.org/1999/xlink" x="0px" y="0px"
	 width="136.833px" height="136.834px" viewBox="0 0 136.833 136.834" style="enable-background:new 0 0 136.833 136.834;"
	 xml:space="preserve">
<style type="text/css">
<![CDATA[
	.st0{fill:#AA865B;}
	.st1{fill:#49A0AE;}
	.st2{fill:#E0E0E0;}
	.st3{fill:#E23942;}
	.st4{fill:#E4DFD6;}
	.st5{fill:#E4E4E4;}
	.st6{fill:#4C3E30;}
	.st7{fill:#E7E7E7;}
	.st8{fill:#4D4946;}
	.st9{fill:#E84849;}
	.st10{fill:#E8E8DF;}
	.st11{fill:#E8E8E8;}
	.st12{fill:#E9E9EA;}
	.st13{fill:#818282;}
	.st14{fill:#828282;}
	.st15{fill:#B1C635;}
	.st16{fill:#857856;}
	.st17{fill:#B5DDE1;}
	.st18{fill:#B7C133;}
	.st19{fill:#89932C;}
	.st20{fill:#1E1B18;}
	.st21{fill:#ECECEC;}
	.st22{fill:#51473A;}
	.st23{fill:#EFEFEF;}
	.st24{fill:#524F49;}
	.st25{fill:#585550;}
	.st26{fill:#8CB23F;}
	.st27{fill:#202121;}
	.st28{fill:#8EC0C8;}
	.st29{fill:#F3F4F5;}
	.st30{fill:#5B4F3F;}
	.st31{fill:#5C9340;}
	.st32{fill:#C02026;}
	.st33{fill:#C0C0C0;}
	.st34{fill:#93793D;}
	.st35{fill:#939292;}
	.st36{fill:#C4E7ED;}
	.st37{opacity:0.5;}
	.st38{opacity:0.7;}
	.st39{opacity:0.8;}
	.st40{fill:#FFA300;}
	.st41{fill:#FFCE00;}
	.st42{fill:#FFFFFF;}
	.st43{fill:#65A844;}
	.st44{fill:#665C51;}
	.st45{fill:#67B8CB;}
	.st46{fill:#9BD7D9;}
	.st47{fill:#CDCCCB;}
	.st48{fill:#344E5D;}
	.st49{fill:#6B4E15;}
	.st50{fill:#6B7D35;}
	.st51{fill:#D2D2D2;}
	.st52{fill:#3A2F22;}
	.st53{fill:#3B342D;}
	.st54{fill:#D6EFF2;}
	.st55{fill:#D7D7D7;}
	.st56{fill:#3E8540;}
	.st57{fill:#D9E3E4;}
	.st58{fill:#A0D2DC;}
	.st59{fill:#A19F9F;}
	.st60{fill:#737373;}
	.st61{fill:#A2D4DE;}
	.st62{fill:#A2DADB;}
	.st63{fill:#73BFCB;}
	.st64{fill:#766959;}
	.st65{fill:#77746F;}
	.st66{fill:#77913B;}
	.st67{fill:#A6B232;}
	.st68{fill:#A8A7A7;}
	.st69{fill:#DFDFDF;}
	.st70{fill:#423528;}
	.st71{fill:#43B665;}
	.st72{fill:#444341;}
	.st73{fill:#453F38;}
]]>
</style>
<g>
	<g>
		<g>
			<circle class="st48" cx="68.416" cy="68.417" r="63.333"/>
		</g>
	</g>
	<g>
		<g>
			<g>
				<path class="st46" d="M66.317,99.8v-6.335l-7.428-8.914l7.281-6.65c-11.672-1.951-8.559-15.27-8.559-15.27
					c0.088-4.239,4.521-8.479,7.848-11.07l-4.848-4.957l1.555-1.872c0.053-0.273,0.154-0.502,0.314-0.661
					c0.102-0.098,0.248-0.172,0.424-0.227l3.412-4.113v-1.924c-0.625,0.539-1.725,0.883-2.232,0.881
					c-0.73-0.004-1.461-0.426-1.461-0.426s0-0.852,0.576-1.844c0.57-0.99,1.717-1.699,1.717-1.699s0.85,0.583,1.4,1.268v-3.969
					l3.654-5.015l-1.934-2.847c-0.137-0.002-0.268-0.011-0.404-0.011c-5.789,0-11.314,1.108-16.393,3.104
					c3.461-0.724,9.102-1.691,11.959-1.032c0,0-3.439,4.108-5.158,4.533c-1.721,0.426-4.584,1.841-5.301,2.409
					c-0.715,0.566-3.152-0.424-1.719-1.558c1.428-1.134,5.299-3.685,4.441-3.969c-0.859-0.282-4.729,2.409-6.305,3.543
					c-1.574,1.134-2.865,2.832-3.578,3.968c-0.721,1.133-0.576,4.108-2.15,4.676c-1.576,0.566-8.453,3.4-10.746,5.385
					c-2.291,1.982-4.76,3.447-5.762,5.431c-0.264,0.519-0.35,0.542-0.324,0.272c-0.508,1.145-0.965,2.313-1.375,3.507
					c0.793,0.165,0.102,4.96-0.18,5.934l-2.066,4.629c-0.094,1.069-0.148,2.148-0.17,3.237c0.109-0.232,0.246-0.402,0.424-0.482
					c1.574-0.707,2.051-0.857,3.439,0.568c1.385,1.426,3.291,3.826,4.01,5.101c0.717,1.274,3.295,2.833,3.295,3.825
					s-0.574,3.4,0,4.533c0.572,1.135,1.432,1.277,2.721,1.843c1.291,0.565,3.725,1.417,5.158,2.692
					c1.432,1.277,3.438,2.834,3.006,4.533c-0.428,1.702-1.289,4.252-1.002,5.244c0.287,0.991,1.291,2.691,0.145,3.4
					s-2.004,0.568-1.861,1.841c0.137,1.224,1.461,4.909,1.947,5.836c6.768,4.184,14.725,6.617,23.254,6.671l5.258-6.615L66.317,99.8
					z"/>
			</g>
			<g>
				<g>
					<path class="st31" d="M66.317,59.104v-6.666l-0.857-0.877c-3.326,2.592-7.76,6.831-7.848,11.07c0,0-3.113,13.318,8.559,15.27
						l0.146-0.135v-5.715l7.707-6.104L66.317,59.104z"/>
				</g>
				<g>
					<path class="st71" d="M62.481,44.071c-0.16,0.159-0.262,0.388-0.314,0.661l0.738-0.888
						C62.729,43.899,62.583,43.973,62.481,44.071z"/>
				</g>
				<g>
					<path class="st31" d="M66.317,37.807v-1.82c-0.551-0.685-1.4-1.268-1.4-1.268s-1.146,0.709-1.717,1.699
						c-0.576,0.992-0.576,1.844-0.576,1.844s0.73,0.422,1.461,0.426C64.593,38.69,65.692,38.346,66.317,37.807z"/>
				</g>
			</g>
			<g>
				<g>
					<path class="st31" d="M51.241,27.25c-1.744,0.365-2.939,0.668-2.939,0.668c-13.898,6.801-19.988,17.65-19.988,17.65
						c-0.652,1.404-1.645,4.573-1.715,5.34c-0.025,0.27,0.061,0.246,0.324-0.272c1.002-1.983,3.471-3.448,5.762-5.431
						c2.293-1.984,9.17-4.818,10.746-5.385c1.574-0.567,1.43-3.543,2.15-4.676c0.713-1.136,2.004-2.834,3.578-3.968
						c1.576-1.134,5.445-3.825,6.305-3.543c0.857,0.284-3.014,2.835-4.441,3.969c-1.434,1.134,1.004,2.124,1.719,1.558
						c0.717-0.568,3.58-1.983,5.301-2.409c1.719-0.425,5.158-4.533,5.158-4.533C60.343,25.559,54.702,26.527,51.241,27.25z"/>
				</g>
				<g>
					<path class="st31" d="M41.854,86.295c-1.434-1.275-3.867-2.127-5.158-2.692c-1.289-0.565-2.148-0.708-2.721-1.843
						c-0.574-1.133,0-3.541,0-4.533s-2.578-2.551-3.295-3.825c-0.719-1.274-2.625-3.675-4.01-5.101
						c-1.389-1.426-1.865-1.275-3.439-0.568c-0.178,0.08-0.314,0.25-0.424,0.482c-0.848,1.848,0.279,7.88,0.279,7.88
						c3.201,23.564,21.063,31.167,21.063,31.167c-0.016-0.029-0.039-0.072-0.061-0.112c-0.486-0.927-1.811-4.612-1.947-5.836
						c-0.143-1.272,0.715-1.132,1.861-1.841s0.143-2.409-0.145-3.4c-0.287-0.992,0.574-3.542,1.002-5.244
						C45.292,89.129,43.286,87.573,41.854,86.295z"/>
				</g>
				<g>
					<path class="st31" d="M25.044,60.349c0.281-0.974,0.973-5.769,0.18-5.934c-0.01-0.004-0.023-0.017-0.037-0.017
						c-0.064,0.234-0.121,0.443-0.178,0.66c-0.797,2.434-1.373,4.963-1.742,7.563c-0.039,0.24-0.076,0.489-0.117,0.762
						c-0.07,0.518-0.156,1.096-0.256,1.785l0.084-0.19L25.044,60.349z"/>
				</g>
			</g>
		</g>
		<g>
			<g>
				<path class="st46" d="M71.101,49.031c6.445-2.55,8.738,0.425,8.738,0.425c2.549,1.366,8.486,0.627,11.383,0.154l-0.785-0.721
					c0,0,2.578-2.268,1.721-3.543s-2.723,0.426-4.297,0.426c-1.576,0-3.725,1.275-4.586,0.141c-0.859-1.134-1.434-0.85-2.291-0.141
					c-0.859,0.709-2.434,1.842-2.582,1.133c-0.139-0.709-2.719-0.424-2.863-1.133c-0.141-0.709,0.432-2.693-0.857-2.268
					c-1.289,0.424-3.152,1.842-3.439,2.551c-0.285,0.709-1.287,2.834-2.291,2.834c-0.631,0-1.889,0.225-2.836,0.178l1.98,2.028
					C69.81,49.807,71.101,49.031,71.101,49.031z"/>
			</g>
			<g>
				<path class="st46" d="M69.104,32.265v7.46c0.051-0.135,0.117-0.238,0.217-0.289c0.633-0.322,2.348-4.008,3.496-4.434
					c1.146-0.426,4.156,1.133,4.588,0.143c0,0,0.141-2.975-0.432-3.402c-0.576-0.424-1.004-1.699-2.008-1.559
					c-1.002,0.143-1.432,1.135-0.713,1.559c0.713,0.428,1.285,2.126,0.857,2.126c-0.43,0-4.301,0.282-4.441-0.708
					c-0.143-0.99,0.432-3.4,1.717-4.252c1.291-0.848,4.012-0.707,4.873-0.283c0.859,0.427,1.861-0.424,2.15-1.132
					c0.285-0.707-4.076-3.081-5.363-3.081c0,0,9.561,0.715,19.406,6.572c-6.541-4.105-14.217-6.563-22.451-6.805l1.926,2.838
					L69.104,32.265z"/>
			</g>
			<g>
				<path class="st46" d="M69.378,43.079c-0.139-0.747-0.432-2.137-0.352-2.979l-2.965,3.572
					C67.569,43.592,69.515,43.793,69.378,43.079z"/>
			</g>
			<g>
				<path class="st46" d="M114.499,68.987c0-5.018-0.836-9.838-2.355-14.342c0.688,2.179,1.258,4.51,1.68,7.012
					c0,0-3.617-11.918-6.051-12.626c0,0-1.291,0.851-2.15,0.708c-0.861-0.143-5.156-2.834-5.441-2.125
					c-0.289,0.711,2.004,3.117,4.438,3.398c2.436,0.285,2.58,0.568,2.725,1.844c0.141,1.274,0.57,3.26,0.285,4.533
					c-0.285,1.276-2.006,5.104-5.158,2.553l-6.297-5.783c1.463,2.395,3.064,4.989,4.148,6.064c2.148,2.125,5.158,4.96,5.158,4.96
					c4.297-0.992,1.719,6.659,1.719,6.659c-0.717,2.551-3.58,10.77-3.58,10.77c-0.145,1.842-2.152,8.928-2.152,8.928
					c-3.434,10.201-14.32,13.318-14.32,13.318c0.139-1.134-1.004-4.816-1.004-4.816c-1.719-4.254-0.432-9.779-0.432-9.779
					c0.143-1.654-1.719-4.391-1.719-4.391c-1.145-1.275-1.576-7.229-1.576-7.229c-1.348-4.113-10.631-1.717-13.311-0.93v0.391
					l-7.139,6.518l7.139,8.567v6.333l6.51,7.668l-5.264,6.62C94.794,113.44,114.499,93.52,114.499,68.987z"/>
			</g>
			<g>
				<path class="st31" d="M79.839,49.456c0,0-2.293-2.975-8.738-0.425c0,0-1.291,0.776-3.006,2.064l1.01,1.034v6.634l8.129,7.218
					l-8.129,6.438v5.295c2.68-0.787,11.963-3.184,13.311,0.93c0,0,0.432,5.953,1.576,7.229c0,0,1.861,2.736,1.719,4.391
					c0,0-1.287,5.525,0.432,9.779c0,0,1.143,3.683,1.004,4.816c0,0,10.887-3.117,14.32-13.318c0,0,2.008-7.086,2.152-8.928
					c0,0,2.863-8.219,3.58-10.77c0,0,2.578-7.651-1.719-6.659c0,0-3.01-2.835-5.158-4.96c-1.084-1.075-2.686-3.67-4.148-6.064
					l-4.951-4.549C88.325,50.083,82.388,50.822,79.839,49.456z"/>
			</g>
			<g>
				<path class="st71" d="M112.144,54.645c-3.795-12.005-11.324-19.275-18.691-23.66C102.136,36.431,108.812,44.766,112.144,54.645z
					"/>
			</g>
			<g>
				<path class="st31" d="M79.409,27.494c-0.289,0.708-1.291,1.559-2.15,1.132c-0.861-0.424-3.582-0.564-4.873,0.283
					c-1.285,0.852-1.859,3.262-1.717,4.252c0.141,0.99,4.012,0.708,4.441,0.708c0.428,0-0.145-1.698-0.857-2.126
					c-0.719-0.424-0.289-1.416,0.713-1.559c1.004-0.141,1.432,1.135,2.008,1.559c0.572,0.428,0.432,3.402,0.432,3.402
					c-0.432,0.99-3.441-0.568-4.588-0.143c-1.148,0.426-2.863,4.111-3.496,4.434c-0.1,0.051-0.166,0.154-0.217,0.289v0.28
					L69.026,40.1c-0.08,0.842,0.213,2.231,0.352,2.979c0.137,0.715-1.809,0.514-3.316,0.594l-1.879,2.264
					c0.059,0.498,0.178,1.018,0.313,1.479l1.619,1.652c0.947,0.047,2.205-0.178,2.836-0.178c1.004,0,2.006-2.125,2.291-2.834
					c0.287-0.709,2.15-2.127,3.439-2.551c1.289-0.426,0.717,1.559,0.857,2.268c0.145,0.709,2.725,0.424,2.863,1.133
					c0.148,0.709,1.723-0.424,2.582-1.133c0.857-0.709,1.432-0.993,2.291,0.141c0.861,1.135,3.01-0.141,4.586-0.141
					c1.574,0,3.439-1.701,4.297-0.426s-1.721,3.543-1.721,3.543l0.785,0.721c1.008-0.164,1.652-0.297,1.652-0.297
					c0.566,0.352,1.869,2.502,3.299,4.846l6.297,5.783c3.152,2.551,4.873-1.276,5.158-2.553c0.285-1.273-0.145-3.259-0.285-4.533
					c-0.145-1.275-0.289-1.559-2.725-1.844c-2.434-0.281-4.727-2.688-4.438-3.398c0.285-0.709,4.58,1.982,5.441,2.125
					c0.859,0.143,2.15-0.708,2.15-0.708c2.434,0.708,6.051,12.626,6.051,12.626c-0.422-2.502-0.992-4.833-1.68-7.012
					c-3.332-9.879-10.008-18.214-18.691-23.66c-9.846-5.857-19.406-6.572-19.406-6.572C75.333,24.413,79.694,26.787,79.409,27.494z"
					/>
			</g>
			<g>
				<path class="st46" d="M64.495,47.415c-0.135-0.461-0.254-0.98-0.313-1.479l-0.52,0.625L64.495,47.415z"/>
			</g>
			<g>
				<path class="st31" d="M92.874,49.313c0,0-0.645,0.133-1.652,0.297l4.951,4.549C94.743,51.815,93.44,49.665,92.874,49.313z"/>
			</g>
		</g>
	</g>
</g>
</svg>
