<?xml version="1.0" encoding="utf-8"?>
<!-- Generator: Adobe Illustrator 16.0.0, SVG Export Plug-In . SVG Version: 6.00 Build 0)  -->
<!DOCTYPE svg PUBLIC "-//W3C//DTD SVG 1.1//EN" "http://www.w3.org/Graphics/SVG/1.1/DTD/svg11.dtd">
<svg version="1.1" id="Layer_1" xmlns="http://www.w3.org/2000/svg" xmlns:xlink="http://www.w3.org/1999/xlink" x="0px" y="0px"
	 width="136.833px" height="136.834px" viewBox="0 0 136.833 136.834" style="enable-background:new 0 0 136.833 136.834;"
	 xml:space="preserve">
<style type="text/css">
<![CDATA[
	.st0{fill:#AA865B;}
	.st1{fill:#49A0AE;}
	.st2{fill:#E0E0E0;}
	.st3{fill:#E23942;}
	.st4{fill:#E4DFD6;}
	.st5{fill:#E4E4E4;}
	.st6{fill:#4C3E30;}
	.st7{fill:#E7E7E7;}
	.st8{fill:#4D4946;}
	.st9{fill:#E84849;}
	.st10{fill:#E8E8DF;}
	.st11{fill:#E8E8E8;}
	.st12{fill:#E9E9EA;}
	.st13{fill:#818282;}
	.st14{fill:#828282;}
	.st15{fill:#B1C635;}
	.st16{fill:#857856;}
	.st17{fill:#B5DDE1;}
	.st18{fill:#B7C133;}
	.st19{fill:#89932C;}
	.st20{fill:#1E1B18;}
	.st21{fill:#ECECEC;}
	.st22{fill:#51473A;}
	.st23{fill:#EFEFEF;}
	.st24{fill:#524F49;}
	.st25{fill:#585550;}
	.st26{fill:#8CB23F;}
	.st27{fill:#202121;}
	.st28{fill:#8EC0C8;}
	.st29{fill:#F3F4F5;}
	.st30{fill:#5B4F3F;}
	.st31{fill:#5C9340;}
	.st32{fill:#C02026;}
	.st33{fill:#C0C0C0;}
	.st34{fill:#93793D;}
	.st35{fill:#939292;}
	.st36{fill:#C4E7ED;}
	.st37{opacity:0.5;}
	.st38{opacity:0.7;}
	.st39{opacity:0.8;}
	.st40{fill:#FFA300;}
	.st41{fill:#FFCE00;}
	.st42{fill:#FFFFFF;}
	.st43{fill:#65A844;}
	.st44{fill:#665C51;}
	.st45{fill:#67B8CB;}
	.st46{fill:#9BD7D9;}
	.st47{fill:#CDCCCB;}
	.st48{fill:#344E5D;}
	.st49{fill:#6B4E15;}
	.st50{fill:#6B7D35;}
	.st51{fill:#D2D2D2;}
	.st52{fill:#3A2F22;}
	.st53{fill:#3B342D;}
	.st54{fill:#D6EFF2;}
	.st55{fill:#D7D7D7;}
	.st56{fill:#3E8540;}
	.st57{fill:#D9E3E4;}
	.st58{fill:#A0D2DC;}
	.st59{fill:#A19F9F;}
	.st60{fill:#737373;}
	.st61{fill:#A2D4DE;}
	.st62{fill:#A2DADB;}
	.st63{fill:#73BFCB;}
	.st64{fill:#766959;}
	.st65{fill:#77746F;}
	.st66{fill:#77913B;}
	.st67{fill:#A6B232;}
	.st68{fill:#A8A7A7;}
	.st69{fill:#DFDFDF;}
	.st70{fill:#423528;}
	.st71{fill:#43B665;}
	.st72{fill:#444341;}
	.st73{fill:#453F38;}
]]>
</style>
<g>
	<g>
		<g>
			<circle class="st10" cx="68.417" cy="68.417" r="63.333"/>
		</g>
	</g>
	<g>
		<path class="st34" d="M69.479,68.89c-3.659,0-6.626,2.967-6.626,6.627v40.798c0,3.659,2.967,4.124,6.626,4.124
			c3.66,0,6.626-0.465,6.626-4.124V75.517C76.105,71.856,73.139,68.89,69.479,68.89z"/>
	</g>
	<g>
		<polygon class="st34" points="72.402,97.438 90.57,87.772 92.07,88.772 74.902,104.772 		"/>
	</g>
	<g>
		<polygon class="st34" points="67.904,94.772 49.07,68.938 47.757,69.938 64.07,101.606 		"/>
	</g>
	<g>
		<g>
			<circle class="st43" cx="45.955" cy="60.272" r="10.5"/>
		</g>
		<g>
			<circle class="st43" cx="93.904" cy="60.272" r="10.5"/>
		</g>
		<g>
			<circle class="st43" cx="56.804" cy="70.423" r="10.5"/>
		</g>
		<g>
			<circle class="st43" cx="83.753" cy="70.073" r="10.5"/>
		</g>
		<g>
			<circle class="st43" cx="70.104" cy="73.223" r="10.5"/>
		</g>
		<g>
			<circle class="st43" cx="56.804" cy="51.173" r="10.5"/>
		</g>
		<g>
			<circle class="st43" cx="83.753" cy="51.173" r="10.5"/>
		</g>
		<g>
			<circle class="st43" cx="51.904" cy="39.272" r="10.5"/>
		</g>
		<g>
			<circle class="st43" cx="87.253" cy="39.272" r="10.5"/>
		</g>
		<g>
			<circle class="st43" cx="46.654" cy="48.372" r="10.5"/>
		</g>
		<g>
			<circle class="st43" cx="93.205" cy="48.372" r="10.5"/>
		</g>
		<g>
			<circle class="st43" cx="70.104" cy="51.173" r="18.2"/>
		</g>
		<g>
			<circle class="st43" cx="59.253" cy="35.073" r="10.5"/>
		</g>
		<g>
			<circle class="st43" cx="70.104" cy="31.223" r="10.5"/>
		</g>
		<g>
			<circle class="st43" cx="80.253" cy="35.073" r="10.5"/>
		</g>
		<g>
			<g>
				<path class="st31" d="M83.054,48.923c-1.092,0-2.145-0.115-3.159-0.311c-2.429,2.523-6.261,4.16-10.584,4.16
					c-4.251,0-8.025-1.579-10.46-4.029c-0.778,0.112-1.578,0.18-2.396,0.18c-6.195,0-11.387-3.35-12.864-7.875
					c-0.274,0.84-0.437,1.717-0.437,2.625c0,5.799,5.955,10.5,13.301,10.5c0.818,0,1.618-0.067,2.396-0.18
					c2.435,2.45,6.209,4.029,10.46,4.029c4.323,0,8.155-1.637,10.584-4.16c1.015,0.195,2.067,0.311,3.159,0.311
					c7.346,0,13.3-4.701,13.3-10.5c0-0.908-0.161-1.785-0.437-2.625C94.44,45.573,89.25,48.923,83.054,48.923z"/>
			</g>
		</g>
		<g>
			<g>
				<path class="st31" d="M85.013,64.083c-1.253,0-2.461-0.133-3.625-0.356c-2.786,2.896-7.183,4.772-12.143,4.772
					c-4.877,0-9.207-1.812-12-4.622c-0.894,0.128-1.811,0.206-2.75,0.206c-7.107,0-13.063-3.843-14.759-9.035
					c-0.315,0.964-0.501,1.97-0.501,3.012c0,6.652,6.832,12.047,15.26,12.047c0.939,0,1.856-0.078,2.75-0.206
					c2.793,2.811,7.123,4.622,12,4.622c4.96,0,9.356-1.878,12.143-4.773c1.164,0.225,2.372,0.357,3.625,0.357
					c8.428,0,15.258-5.395,15.258-12.047c0-1.042-0.185-2.048-0.5-3.012C98.076,60.24,92.121,64.083,85.013,64.083z"/>
			</g>
		</g>
		<g>
			<g>
				<path class="st31" d="M78.722,36.022c-0.735,0-1.446-0.078-2.13-0.21c-1.639,1.702-4.222,2.806-7.137,2.806
					c-2.866,0-5.411-1.064-7.054-2.717c-0.523,0.076-1.063,0.121-1.615,0.121c-4.178,0-7.678-2.258-8.675-5.311
					c-0.185,0.566-0.294,1.158-0.294,1.77c0,3.91,4.016,7.081,8.969,7.081c0.552,0,1.092-0.046,1.615-0.121
					c1.643,1.651,4.188,2.717,7.054,2.717c2.915,0,5.498-1.104,7.137-2.806c0.684,0.133,1.395,0.21,2.13,0.21
					c4.953,0,8.969-3.171,8.969-7.081c0-0.611-0.109-1.203-0.295-1.77C86.4,33.765,82.9,36.022,78.722,36.022z"/>
			</g>
		</g>
	</g>
	<g>
		<g>
			<circle class="st43" cx="89.243" cy="87.572" r="2.099"/>
		</g>
		<g>
			<circle class="st43" cx="98.762" cy="88.698" r="2.099"/>
		</g>
		<g>
			<circle class="st43" cx="91.159" cy="89.841" r="2.099"/>
		</g>
		<g>
			<circle class="st43" cx="96.576" cy="89.909" r="2.1"/>
		</g>
		<g>
			<circle class="st43" cx="93.763" cy="90.462" r="2.1"/>
		</g>
		<g>
			<circle class="st43" cx="91.611" cy="86.02" r="2.099"/>
		</g>
		<g>
			<circle class="st43" cx="96.961" cy="86.653" r="2.099"/>
		</g>
		<g>
			<circle class="st43" cx="90.918" cy="83.542" r="2.099"/>
		</g>
		<g>
			<circle class="st43" cx="97.936" cy="84.373" r="2.099"/>
		</g>
		<g>
			<circle class="st43" cx="89.662" cy="85.226" r="2.099"/>
		</g>
		<g>
			<circle class="st43" cx="98.904" cy="86.319" r="2.098"/>
		</g>
		<g>
			<circle class="st43" cx="94.251" cy="86.333" r="3.638"/>
		</g>
		<g>
			<circle class="st43" cx="92.476" cy="82.882" r="2.099"/>
		</g>
		<g>
			<circle class="st43" cx="94.719" cy="82.372" r="2.099"/>
		</g>
		<g>
			<circle class="st43" cx="96.644" cy="83.375" r="2.099"/>
		</g>
	</g>
	<g>
		<g>
			<path class="st31" d="M96.5,88.261c-0.191,0-0.375-0.02-0.553-0.055c-0.426,0.442-1.098,0.729-1.855,0.729
				c-0.744,0-1.406-0.276-1.832-0.706c-0.137,0.02-0.277,0.031-0.42,0.031c-1.086,0-1.996-0.587-2.255-1.38
				c-0.048,0.147-0.077,0.301-0.077,0.46c0,1.016,1.045,1.84,2.332,1.84c0.143,0,0.283-0.012,0.42-0.031
				c0.426,0.43,1.088,0.706,1.832,0.706c0.758,0,1.43-0.287,1.855-0.729c0.178,0.035,0.361,0.055,0.553,0.055
				c1.288,0,2.331-0.824,2.331-1.84c0-0.159-0.028-0.313-0.076-0.46C98.497,87.674,97.586,88.261,96.5,88.261z"/>
		</g>
	</g>
</g>
</svg>
