<?xml version="1.0" encoding="utf-8"?>
<!-- Generator: Adobe Illustrator 16.0.0, SVG Export Plug-In . SVG Version: 6.00 Build 0)  -->
<!DOCTYPE svg PUBLIC "-//W3C//DTD SVG 1.1//EN" "http://www.w3.org/Graphics/SVG/1.1/DTD/svg11.dtd">
<svg version="1.1" id="Layer_1" xmlns="http://www.w3.org/2000/svg" xmlns:xlink="http://www.w3.org/1999/xlink" x="0px" y="0px"
	 width="136.833px" height="136.834px" viewBox="0 0 136.833 136.834" style="enable-background:new 0 0 136.833 136.834;"
	 xml:space="preserve">
<style type="text/css">
<![CDATA[
	.st0{fill:#AA865B;}
	.st1{fill:#49A0AE;}
	.st2{fill:#E0E0E0;}
	.st3{fill:#E23942;}
	.st4{fill:#E4DFD6;}
	.st5{fill:#E4E4E4;}
	.st6{fill:#4C3E30;}
	.st7{fill:#E7E7E7;}
	.st8{fill:#4D4946;}
	.st9{fill:#E84849;}
	.st10{fill:#E8E8DF;}
	.st11{fill:#E8E8E8;}
	.st12{fill:#E9E9EA;}
	.st13{fill:#818282;}
	.st14{fill:#828282;}
	.st15{fill:#B1C635;}
	.st16{fill:#857856;}
	.st17{fill:#B5DDE1;}
	.st18{fill:#B7C133;}
	.st19{fill:#89932C;}
	.st20{fill:#1E1B18;}
	.st21{fill:#ECECEC;}
	.st22{fill:#51473A;}
	.st23{fill:#EFEFEF;}
	.st24{fill:#524F49;}
	.st25{fill:#585550;}
	.st26{fill:#8CB23F;}
	.st27{fill:#202121;}
	.st28{fill:#8EC0C8;}
	.st29{fill:#F3F4F5;}
	.st30{fill:#5B4F3F;}
	.st31{fill:#5C9340;}
	.st32{fill:#C02026;}
	.st33{fill:#C0C0C0;}
	.st34{fill:#93793D;}
	.st35{fill:#939292;}
	.st36{fill:#C4E7ED;}
	.st37{opacity:0.5;}
	.st38{opacity:0.7;}
	.st39{opacity:0.8;}
	.st40{fill:#FFA300;}
	.st41{fill:#FFCE00;}
	.st42{fill:#FFFFFF;}
	.st43{fill:#65A844;}
	.st44{fill:#665C51;}
	.st45{fill:#67B8CB;}
	.st46{fill:#9BD7D9;}
	.st47{fill:#CDCCCB;}
	.st48{fill:#344E5D;}
	.st49{fill:#6B4E15;}
	.st50{fill:#6B7D35;}
	.st51{fill:#D2D2D2;}
	.st52{fill:#3A2F22;}
	.st53{fill:#3B342D;}
	.st54{fill:#D6EFF2;}
	.st55{fill:#D7D7D7;}
	.st56{fill:#3E8540;}
	.st57{fill:#D9E3E4;}
	.st58{fill:#A0D2DC;}
	.st59{fill:#A19F9F;}
	.st60{fill:#737373;}
	.st61{fill:#A2D4DE;}
	.st62{fill:#A2DADB;}
	.st63{fill:#73BFCB;}
	.st64{fill:#766959;}
	.st65{fill:#77746F;}
	.st66{fill:#77913B;}
	.st67{fill:#A6B232;}
	.st68{fill:#A8A7A7;}
	.st69{fill:#DFDFDF;}
	.st70{fill:#423528;}
	.st71{fill:#43B665;}
	.st72{fill:#444341;}
	.st73{fill:#453F38;}
]]>
</style>
<g>
	<g>
		<g>
			<circle class="st15" cx="68.416" cy="68.417" r="63.333"/>
		</g>
	</g>
	<g>
		<g>
			<circle class="st46" cx="68.372" cy="68.417" r="45.045"/>
		</g>
	</g>
	<g>
		<g>
			<g>
				<path class="st31" d="M92.001,48.59c0,0-9.713,2.008-13.191,0.145c0,0-2.32-3.012-8.846-0.43c0,0-11.453,6.883-11.602,13.766
					c0,0-3.189,13.627,8.846,15.49c0,0,12.613-4.158,14.209,0.717c0,0,0.438,6.025,1.596,7.315c0,0,1.885,2.771,1.74,4.444
					c0,0-1.307,5.594,0.436,9.897c0,0,1.158,3.728,1.014,4.876c0,0,11.021-3.156,14.5-13.48c0,0,2.029-7.173,2.174-9.037
					c0,0,2.9-8.318,3.627-10.9c0,0,2.609-7.744-1.742-6.738c0,0-3.045-2.871-5.221-5.021C97.366,57.482,93.163,49.307,92.001,48.59z
					"/>
			</g>
			<g>
				<path class="st31" d="M101.716,59.348l-12.18-11.188c0,0,2.609-2.295,1.74-3.584c-0.869-1.292-2.754,0.43-4.35,0.43
					c-1.594,0-3.77,1.29-4.639,0.143c-0.871-1.148-1.451-0.859-2.32-0.143c-0.871,0.717-2.465,1.864-2.609,1.146
					c-0.146-0.716-2.756-0.429-2.9-1.146s0.432-2.726-0.873-2.295c-1.301,0.429-3.188,1.865-3.479,2.582
					c-0.289,0.717-1.301,2.867-2.318,2.867c-1.016,0-3.625,0.574-4.059-0.286c-0.436-0.862-1.305-3.73-0.436-4.59
					c0.869-0.861,5.125,0.048,4.928-1.004c-0.195-1.051-0.697-3.359-0.057-3.688c0.641-0.327,2.377-4.056,3.539-4.487
					c1.158-0.43,4.205,1.147,4.641,0.144c0,0,0.145-3.011-0.436-3.442c-0.582-0.43-1.02-1.72-2.027-1.578
					c-1.02,0.144-1.455,1.148-0.729,1.578c0.729,0.432,1.305,2.15,0.871,2.15c-0.439,0-4.352,0.287-4.496-0.715
					c-0.146-1.004,0.436-3.443,1.736-4.304c1.311-0.859,4.063-0.718,4.934-0.288c0.871,0.432,1.885-0.43,2.176-1.145
					c0.289-0.717-4.121-3.117-5.428-3.117c0,0,34.361,2.563,40.26,37.694c0,0-3.66-12.062-6.125-12.778c0,0-1.305,0.861-2.176,0.717
					c-0.869-0.145-5.219-2.87-5.508-2.151c-0.291,0.718,2.029,3.154,4.496,3.44c2.461,0.287,2.609,0.574,2.752,1.865
					c0.145,1.289,0.58,3.299,0.293,4.589C106.646,58.055,104.905,61.93,101.716,59.348z"/>
			</g>
			<g>
				<path class="st31" d="M65.757,33.819c0,0-1.158,0.719-1.74,1.72c-0.58,1.006-0.58,1.866-0.58,1.866s0.734,0.428,1.479,0.432
					c0.744,0.002,2.729-0.718,2.729-1.722C67.644,35.11,65.757,33.819,65.757,33.819z"/>
			</g>
			<g>
				<path class="st31" d="M64.017,25.214c0,0-3.479,4.158-5.217,4.589c-1.742,0.432-4.641,1.863-5.365,2.439
					c-0.725,0.573-3.191-0.43-1.74-1.577c1.451-1.149,5.363-3.731,4.494-4.017c-0.869-0.286-4.785,2.438-6.379,3.586
					c-1.596,1.146-2.902,2.865-3.623,4.015c-0.729,1.147-0.582,4.16-2.176,4.733c-1.598,0.574-8.557,3.44-10.875,5.45
					c-2.32,2.007-4.818,3.489-5.836,5.497c-1.014,2.007,0.514-3.205,1.41-5.129c0,0,6.164-10.982,20.23-17.867
					C48.94,26.934,59.667,24.211,64.017,25.214z"/>
			</g>
			<g>
				<path class="st31" d="M23.421,75.698c0,0-1.453-7.746,0.143-8.463s2.076-0.869,3.482,0.574c1.4,1.441,3.332,3.872,4.055,5.162
					c0.73,1.291,3.34,2.867,3.34,3.872s-0.582,3.442,0,4.589c0.578,1.148,1.447,1.293,2.756,1.865
					c1.305,0.572,3.768,1.434,5.217,2.727c1.449,1.291,3.482,2.867,3.045,4.588c-0.436,1.723-1.305,4.303-1.014,5.307
					c0.287,1.004,1.305,2.724,0.146,3.441c-1.162,0.718-2.031,0.575-1.887,1.863c0.148,1.291,1.6,5.303,2.035,6.02
					C44.739,107.243,26.659,99.549,23.421,75.698z"/>
			</g>
			<g>
				<path class="st31" d="M25.401,59.76c0.289-1.002,1.014-6.021,0.141-6.021c-1.701,6.275-1.639,6.195-2.32,10.899"/>
			</g>
		</g>
	</g>
</g>
</svg>
