<?xml version="1.0" encoding="utf-8"?>
<!-- Generator: Adobe Illustrator 16.0.0, SVG Export Plug-In . SVG Version: 6.00 Build 0)  -->
<!DOCTYPE svg PUBLIC "-//W3C//DTD SVG 1.1//EN" "http://www.w3.org/Graphics/SVG/1.1/DTD/svg11.dtd">
<svg version="1.1" id="Layer_1" xmlns="http://www.w3.org/2000/svg" xmlns:xlink="http://www.w3.org/1999/xlink" x="0px" y="0px"
	 width="136.833px" height="136.833px" viewBox="0 0 136.833 136.833" style="enable-background:new 0 0 136.833 136.833;"
	 xml:space="preserve">
<style type="text/css">
<![CDATA[
	.st0{fill:#AA865B;}
	.st1{fill:#49A0AE;}
	.st2{fill:#E0E0E0;}
	.st3{fill:#E23942;}
	.st4{fill:#E4DFD6;}
	.st5{fill:#E4E4E4;}
	.st6{fill:#4C3E30;}
	.st7{fill:#E7E7E7;}
	.st8{fill:#4D4946;}
	.st9{fill:#E84849;}
	.st10{fill:#E8E8DF;}
	.st11{fill:#E8E8E8;}
	.st12{fill:#E9E9EA;}
	.st13{fill:#818282;}
	.st14{fill:#828282;}
	.st15{fill:#B1C635;}
	.st16{fill:#857856;}
	.st17{fill:#B5DDE1;}
	.st18{fill:#B7C133;}
	.st19{fill:#89932C;}
	.st20{fill:#1E1B18;}
	.st21{fill:#ECECEC;}
	.st22{fill:#51473A;}
	.st23{fill:#EFEFEF;}
	.st24{fill:#524F49;}
	.st25{fill:#585550;}
	.st26{fill:#8CB23F;}
	.st27{fill:#202121;}
	.st28{fill:#8EC0C8;}
	.st29{fill:#F3F4F5;}
	.st30{fill:#5B4F3F;}
	.st31{fill:#5C9340;}
	.st32{fill:#C02026;}
	.st33{fill:#C0C0C0;}
	.st34{fill:#93793D;}
	.st35{fill:#939292;}
	.st36{fill:#C4E7ED;}
	.st37{opacity:0.5;}
	.st38{opacity:0.7;}
	.st39{opacity:0.8;}
	.st40{fill:#FFA300;}
	.st41{fill:#FFCE00;}
	.st42{fill:#FFFFFF;}
	.st43{fill:#65A844;}
	.st44{fill:#665C51;}
	.st45{fill:#67B8CB;}
	.st46{fill:#9BD7D9;}
	.st47{fill:#CDCCCB;}
	.st48{fill:#344E5D;}
	.st49{fill:#6B4E15;}
	.st50{fill:#6B7D35;}
	.st51{fill:#D2D2D2;}
	.st52{fill:#3A2F22;}
	.st53{fill:#3B342D;}
	.st54{fill:#D6EFF2;}
	.st55{fill:#D7D7D7;}
	.st56{fill:#3E8540;}
	.st57{fill:#D9E3E4;}
	.st58{fill:#A0D2DC;}
	.st59{fill:#A19F9F;}
	.st60{fill:#737373;}
	.st61{fill:#A2D4DE;}
	.st62{fill:#A2DADB;}
	.st63{fill:#73BFCB;}
	.st64{fill:#766959;}
	.st65{fill:#77746F;}
	.st66{fill:#77913B;}
	.st67{fill:#A6B232;}
	.st68{fill:#A8A7A7;}
	.st69{fill:#DFDFDF;}
	.st70{fill:#423528;}
	.st71{fill:#43B665;}
	.st72{fill:#444341;}
	.st73{fill:#453F38;}
]]>
</style>
<g>
	<g>
		<g>
			<circle class="st58" cx="68.417" cy="68.399" r="63.333"/>
		</g>
	</g>
	<g>
		<g>
			<g>
				<g>
					<path class="st58" d="M127.5,91.242c2.735-7.079,4.25-14.765,4.25-22.809c0-34.979-28.355-63.333-63.333-63.333
						S5.083,33.454,5.083,68.433c0,7.18,1.212,14.073,3.414,20.508c15.923-8.395,35.841-12.398,57.458-12.398
						C89.463,76.542,110.964,81.274,127.5,91.242z"/>
				</g>
				<g>
					<path class="st15" d="M68.417,131.767c26.934,0,49.926-16.822,59.083-40.525c-16.535-9.968-38.036-14.699-61.544-14.699
						c-21.617,0-41.535,4.004-57.458,12.398C17.022,113.85,40.62,131.767,68.417,131.767z"/>
				</g>
			</g>
		</g>
	</g>
	<g>
		<g>
			<g>
				<path class="st23" d="M71.727,76.652l-0.35-5.929c0-2.175-1.05-3.938-2.344-3.938h-0.625l0.022,9.789
					C69.535,76.589,70.633,76.615,71.727,76.652z"/>
			</g>
			<g>
				<path class="st23" d="M68.431,76.574l0.123,55.19c2.162-0.005,4.296-0.126,6.401-0.343l-3.229-54.77
					C70.633,76.615,69.535,76.589,68.431,76.574z"/>
			</g>
			<g>
				<path class="st5" d="M68.431,76.574l-0.022-9.789h-0.353c-1.293,0-2.344,1.764-2.344,3.938l-0.344,5.826
					c0.197-0.001,0.391-0.007,0.587-0.007C66.785,76.542,67.607,76.562,68.431,76.574z"/>
			</g>
			<g>
				<path class="st5" d="M68.554,131.764l-0.123-55.19c-0.824-0.012-1.646-0.031-2.476-0.031c-0.196,0-0.39,0.006-0.587,0.007
					l-3.234,54.897c2.067,0.203,4.16,0.32,6.282,0.32C68.462,131.767,68.508,131.765,68.554,131.764z"/>
			</g>
		</g>
		<g>
			<g>
				<path class="st5" d="M71.726,70.822c0,0.703-0.662,1.273-1.48,1.273h-3.479c-0.816,0-1.479-0.57-1.479-1.273v-4.328
					c0-0.705,0.663-1.275,1.479-1.275h3.479c0.818,0,1.48,0.57,1.48,1.275V70.822z"/>
			</g>
			<g>
				<circle class="st47" cx="68.374" cy="68.38" r="2.694"/>
			</g>
			<g>
				<g>
					<g>
						<g>
							<path class="st55" d="M57.71,71.798l4.021,0.218c0.952,0.052,6.036-2.944,6.036-2.944c0.053-0.953-0.676-1.768-1.631-1.82
								L16.61,64.559c-0.954-0.052-1.769,0.68-1.821,1.632C14.789,66.191,56.757,71.746,57.71,71.798z"/>
						</g>
						<g>
							<path class="st12" d="M57.875,71.266l4.02,0.218c0.951,0.053,6.037-2.944,6.037-2.944c0.052-0.953-0.677-1.769-1.632-1.82
								l-49.525-2.691c-0.955-0.053-1.771,0.679-1.823,1.632C14.951,65.66,56.921,71.214,57.875,71.266z"/>
						</g>
					</g>
					<g>
						<g>
							<path class="st55" d="M70.668,58.164l-1.954,3.521c-0.463,0.832,0.01,6.717,0.01,6.717c0.832,0.463,1.886,0.164,2.349-0.672
								l24.081-43.361c0.463-0.836,0.162-1.889-0.671-2.353C94.483,22.016,71.133,57.332,70.668,58.164z"/>
						</g>
						<g>
							<path class="st12" d="M70.452,57.669l-1.956,3.52c-0.463,0.833,0.011,6.717,0.011,6.717c0.833,0.464,1.886,0.164,2.349-0.672
								l24.081-43.361c0.465-0.836,0.161-1.889-0.672-2.352C94.264,21.521,70.916,56.835,70.452,57.669z"/>
						</g>
					</g>
					<g>
						<g>
							<path class="st55" d="M76.652,75.898l-2.131-3.418c-0.503-0.809-5.879-3.25-5.879-3.25c-0.809,0.504-1.057,1.568-0.551,2.379
								l26.232,42.095c0.506,0.812,1.574,1.058,2.383,0.555C96.707,114.258,77.156,76.708,76.652,75.898z"/>
						</g>
						<g>
							<path class="st12" d="M76.871,75.32l-2.129-3.418c-0.504-0.809-5.879-3.25-5.879-3.25c-0.809,0.504-1.057,1.568-0.551,2.381
								l26.234,42.093c0.504,0.812,1.572,1.058,2.381,0.554C96.927,113.679,77.375,76.13,76.871,75.32z"/>
						</g>
					</g>
				</g>
				<g>
					<circle class="st5" cx="68.374" cy="68.38" r="1.734"/>
				</g>
			</g>
		</g>
	</g>
</g>
</svg>
