<?xml version="1.0" encoding="utf-8"?>
<!-- Generator: Adobe Illustrator 16.0.0, SVG Export Plug-In . SVG Version: 6.00 Build 0)  -->
<!DOCTYPE svg PUBLIC "-//W3C//DTD SVG 1.1//EN" "http://www.w3.org/Graphics/SVG/1.1/DTD/svg11.dtd">
<svg version="1.1" id="Layer_1" xmlns="http://www.w3.org/2000/svg" xmlns:xlink="http://www.w3.org/1999/xlink" x="0px" y="0px"
	 width="136.833px" height="136.834px" viewBox="0 0 136.833 136.834" style="enable-background:new 0 0 136.833 136.834;"
	 xml:space="preserve">
<style type="text/css">
<![CDATA[
	.st0{fill:#AA865B;}
	.st1{fill:#49A0AE;}
	.st2{fill:#E0E0E0;}
	.st3{fill:#E23942;}
	.st4{fill:#E4DFD6;}
	.st5{fill:#E4E4E4;}
	.st6{fill:#4C3E30;}
	.st7{fill:#E7E7E7;}
	.st8{fill:#4D4946;}
	.st9{fill:#E84849;}
	.st10{fill:#E8E8DF;}
	.st11{fill:#E8E8E8;}
	.st12{fill:#E9E9EA;}
	.st13{fill:#818282;}
	.st14{fill:#828282;}
	.st15{fill:#B1C635;}
	.st16{fill:#857856;}
	.st17{fill:#B5DDE1;}
	.st18{fill:#B7C133;}
	.st19{fill:#89932C;}
	.st20{fill:#1E1B18;}
	.st21{fill:#ECECEC;}
	.st22{fill:#51473A;}
	.st23{fill:#EFEFEF;}
	.st24{fill:#524F49;}
	.st25{fill:#585550;}
	.st26{fill:#8CB23F;}
	.st27{fill:#202121;}
	.st28{fill:#8EC0C8;}
	.st29{fill:#F3F4F5;}
	.st30{fill:#5B4F3F;}
	.st31{fill:#5C9340;}
	.st32{fill:#C02026;}
	.st33{fill:#C0C0C0;}
	.st34{fill:#93793D;}
	.st35{fill:#939292;}
	.st36{fill:#C4E7ED;}
	.st37{opacity:0.5;}
	.st38{opacity:0.7;}
	.st39{opacity:0.8;}
	.st40{fill:#FFA300;}
	.st41{fill:#FFCE00;}
	.st42{fill:#FFFFFF;}
	.st43{fill:#65A844;}
	.st44{fill:#665C51;}
	.st45{fill:#67B8CB;}
	.st46{fill:#9BD7D9;}
	.st47{fill:#CDCCCB;}
	.st48{fill:#344E5D;}
	.st49{fill:#6B4E15;}
	.st50{fill:#6B7D35;}
	.st51{fill:#D2D2D2;}
	.st52{fill:#3A2F22;}
	.st53{fill:#3B342D;}
	.st54{fill:#D6EFF2;}
	.st55{fill:#D7D7D7;}
	.st56{fill:#3E8540;}
	.st57{fill:#D9E3E4;}
	.st58{fill:#A0D2DC;}
	.st59{fill:#A19F9F;}
	.st60{fill:#737373;}
	.st61{fill:#A2D4DE;}
	.st62{fill:#A2DADB;}
	.st63{fill:#73BFCB;}
	.st64{fill:#766959;}
	.st65{fill:#77746F;}
	.st66{fill:#77913B;}
	.st67{fill:#A6B232;}
	.st68{fill:#A8A7A7;}
	.st69{fill:#DFDFDF;}
	.st70{fill:#423528;}
	.st71{fill:#43B665;}
	.st72{fill:#444341;}
	.st73{fill:#453F38;}
]]>
</style>
<g>
	<g>
		<g>
			<g>
				<circle class="st3" cx="68.416" cy="68.417" r="63.333"/>
			</g>
		</g>
	</g>
	<g>
		<g>
			<path class="st49" d="M72.626,77.471c0,2.279-1.848,4.129-4.129,4.129l0,0c-2.279,0-4.127-1.85-4.127-4.129V41.547
				c0-2.279,1.848-2.323,4.127-2.323l0,0c2.281,0,4.129,0.044,4.129,2.323V77.471z"/>
		</g>
		<g>
			<path class="st49" d="M102.181,77.471c0,2.279-1.848,4.129-4.129,4.129l0,0c-2.281,0-4.129-1.85-4.129-4.129V41.547
				c0-2.279,1.848-2.323,4.129-2.323l0,0c2.281,0,4.129,0.044,4.129,2.323V77.471z"/>
		</g>
		<g>
			<path class="st49" d="M81.856,50.115v14.658L53.282,50.115v14.64l-28.537-14.64v46.292c0,1.623,1.193,2.939,2.664,2.939h80.432
				c1.471,0,2.664-1.316,2.664-2.939V64.811L81.856,50.115z"/>
		</g>
		<g>
			<path class="st51" d="M81.856,54.157v14.658L53.282,54.157v14.639L24.745,54.157v46.291c0,1.623,1.193,2.939,2.664,2.939h80.432
				c1.471,0,2.664-1.316,2.664-2.939V68.852L81.856,54.157z"/>
		</g>
		<g>
			<path class="st42" d="M44.843,89.565c0,0.605-0.443,1.098-0.992,1.098h-9.117c-0.549,0-0.994-0.492-0.994-1.098V79.511
				c0-0.604,0.445-1.097,0.994-1.097h9.117c0.549,0,0.992,0.492,0.992,1.097V89.565z"/>
		</g>
		<g>
			<path class="st42" d="M74.05,89.565c0,0.605-0.447,1.098-0.996,1.098h-9.117c-0.549,0-0.992-0.492-0.992-1.098V79.511
				c0-0.604,0.443-1.097,0.992-1.097h9.117c0.549,0,0.996,0.492,0.996,1.097V89.565z"/>
		</g>
		<g>
			<path class="st42" d="M102.065,89.565c0,0.605-0.441,1.098-0.992,1.098h-9.115c-0.549,0-0.994-0.492-0.994-1.098V79.511
				c0-0.604,0.445-1.097,0.994-1.097h9.115c0.551,0,0.992,0.492,0.992,1.097V89.565z"/>
		</g>
		<g class="st38">
			<g>
				<ellipse class="st42" cx="98.656" cy="31.792" rx="2.659" ry="2.484"/>
			</g>
			<g>
				<ellipse class="st42" cx="96.362" cy="29.259" rx="2.658" ry="2.483"/>
			</g>
			<g>
				<ellipse class="st42" cx="99.459" cy="30.252" rx="2.659" ry="2.484"/>
			</g>
			<g>
				<ellipse class="st42" cx="97.79" cy="35.513" rx="2.658" ry="2.483"/>
			</g>
			<g>
				<ellipse class="st42" cx="96.384" cy="32.981" rx="2.658" ry="2.483"/>
			</g>
			<g>
				<ellipse class="st42" cx="96.957" cy="26.551" rx="2.659" ry="2.484"/>
			</g>
			<g>
				<ellipse class="st42" cx="99.459" cy="27.769" rx="2.659" ry="2.483"/>
			</g>
		</g>
		<g class="st38">
			<g>
				<ellipse class="st42" cx="69.8" cy="28.055" rx="4.057" ry="3.791"/>
			</g>
			<g>
				<ellipse class="st42" cx="66.301" cy="24.191" rx="4.057" ry="3.79"/>
			</g>
			<g>
				<ellipse class="st42" cx="71.025" cy="25.707" rx="4.057" ry="3.791"/>
			</g>
			<g>
				<path class="st42" d="M72.536,33.734c0,2.094-1.813,3.79-4.057,3.79c-2.238,0-4.057-1.696-4.057-3.79
					c0-2.094,1.818-3.79,4.057-3.79C70.724,29.945,72.536,31.641,72.536,33.734z"/>
			</g>
			<g>
				<path class="st42" d="M70.387,29.87c0,2.092-1.814,3.79-4.053,3.79c-2.245,0-4.057-1.698-4.057-3.79
					c0-2.094,1.812-3.791,4.057-3.791C68.572,26.079,70.387,27.776,70.387,29.87z"/>
			</g>
			<g>
				<ellipse class="st42" cx="67.207" cy="20.058" rx="4.057" ry="3.792"/>
			</g>
			<g>
				<ellipse class="st42" cx="71.025" cy="21.917" rx="4.057" ry="3.79"/>
			</g>
		</g>
	</g>
</g>
</svg>
