<?xml version="1.0" encoding="utf-8"?>
<!-- Generator: Adobe Illustrator 16.0.0, SVG Export Plug-In . SVG Version: 6.00 Build 0)  -->
<!DOCTYPE svg PUBLIC "-//W3C//DTD SVG 1.1//EN" "http://www.w3.org/Graphics/SVG/1.1/DTD/svg11.dtd">
<svg version="1.1" id="Layer_1" xmlns="http://www.w3.org/2000/svg" xmlns:xlink="http://www.w3.org/1999/xlink" x="0px" y="0px"
	 width="136.833px" height="136.834px" viewBox="0 0 136.833 136.834" style="enable-background:new 0 0 136.833 136.834;"
	 xml:space="preserve">
<style type="text/css">
<![CDATA[
	.st0{fill:#AA865B;}
	.st1{fill:#49A0AE;}
	.st2{fill:#E0E0E0;}
	.st3{fill:#E23942;}
	.st4{fill:#E4DFD6;}
	.st5{fill:#E4E4E4;}
	.st6{fill:#4C3E30;}
	.st7{fill:#E7E7E7;}
	.st8{fill:#4D4946;}
	.st9{fill:#E84849;}
	.st10{fill:#E8E8DF;}
	.st11{fill:#E8E8E8;}
	.st12{fill:#E9E9EA;}
	.st13{fill:#818282;}
	.st14{fill:#828282;}
	.st15{fill:#B1C635;}
	.st16{fill:#857856;}
	.st17{fill:#B5DDE1;}
	.st18{fill:#B7C133;}
	.st19{fill:#89932C;}
	.st20{fill:#1E1B18;}
	.st21{fill:#ECECEC;}
	.st22{fill:#51473A;}
	.st23{fill:#EFEFEF;}
	.st24{fill:#524F49;}
	.st25{fill:#585550;}
	.st26{fill:#8CB23F;}
	.st27{fill:#202121;}
	.st28{fill:#8EC0C8;}
	.st29{fill:#F3F4F5;}
	.st30{fill:#5B4F3F;}
	.st31{fill:#5C9340;}
	.st32{fill:#C02026;}
	.st33{fill:#C0C0C0;}
	.st34{fill:#93793D;}
	.st35{fill:#939292;}
	.st36{fill:#C4E7ED;}
	.st37{opacity:0.5;}
	.st38{opacity:0.7;}
	.st39{opacity:0.8;}
	.st40{fill:#FFA300;}
	.st41{fill:#FFCE00;}
	.st42{fill:#FFFFFF;}
	.st43{fill:#65A844;}
	.st44{fill:#665C51;}
	.st45{fill:#67B8CB;}
	.st46{fill:#9BD7D9;}
	.st47{fill:#CDCCCB;}
	.st48{fill:#344E5D;}
	.st49{fill:#6B4E15;}
	.st50{fill:#6B7D35;}
	.st51{fill:#D2D2D2;}
	.st52{fill:#3A2F22;}
	.st53{fill:#3B342D;}
	.st54{fill:#D6EFF2;}
	.st55{fill:#D7D7D7;}
	.st56{fill:#3E8540;}
	.st57{fill:#D9E3E4;}
	.st58{fill:#A0D2DC;}
	.st59{fill:#A19F9F;}
	.st60{fill:#737373;}
	.st61{fill:#A2D4DE;}
	.st62{fill:#A2DADB;}
	.st63{fill:#73BFCB;}
	.st64{fill:#766959;}
	.st65{fill:#77746F;}
	.st66{fill:#77913B;}
	.st67{fill:#A6B232;}
	.st68{fill:#A8A7A7;}
	.st69{fill:#DFDFDF;}
	.st70{fill:#423528;}
	.st71{fill:#43B665;}
	.st72{fill:#444341;}
	.st73{fill:#453F38;}
]]>
</style>
<g>
	<g>
		<g>
			<circle class="st10" cx="68.416" cy="68.417" r="63.333"/>
		</g>
	</g>
	<g>
		<g>
			<path class="st34" d="M69.151,54.208c-3.311,0-5.996,4.204-5.996,9.388l-3.391,51.598c0,5.184,4.201,5.843,9.387,5.843
				c5.188,0,9.387-0.659,9.387-5.843l-3.391-51.598C75.147,58.413,72.46,54.208,69.151,54.208z"/>
		</g>
		<g>
			<polygon class="st34" points="73.292,88.45 99.034,74.754 99.94,75.639 76.835,98.84 			"/>
		</g>
		<g>
			<polygon class="st34" points="66.919,89.454 39.194,53.678 38.374,54.268 61.487,99.135 			"/>
		</g>
		<g>
			<polygon class="st34" points="59.386,36.322 58.603,36.967 63.812,61.834 71.96,55.813 			"/>
		</g>
		<g>
			<polygon class="st34" points="68.771,57.584 80.202,46.284 80.813,46.78 74.968,62.188 			"/>
		</g>
		<g>
			<g>
				<path class="st18" d="M48.116,49.288c-2.891,1.151-4.734,0.271-6.381,1.865c-1.229,1.192-1.258,3.158-0.066,4.387
					c1.193,1.229,3.158,1.259,4.389,0.066C48.325,53.405,48.116,49.288,48.116,49.288z"/>
			</g>
			<g>
				<path class="st18" d="M37.839,36.305c-1.752,2.543-3.76,2.834-4.24,5.057c-0.355,1.663,0.703,3.303,2.367,3.66
					c1.662,0.357,3.301-0.7,3.656-2.363C40.282,39.59,37.839,36.305,37.839,36.305z"/>
			</g>
			<g>
				<path class="st18" d="M26.241,34.204c0.834,2.973-0.227,4.703,1.174,6.494c1.053,1.336,2.99,1.572,4.326,0.523
					c1.34-1.051,1.574-2.986,0.525-4.324C30.329,34.425,26.241,34.204,26.241,34.204z"/>
			</g>
			<g>
				<path class="st18" d="M32.548,61.722c1.854-1.942,1.744-3.706,3.553-4.509c1.352-0.601,2.934,0.01,3.537,1.359
					c0.6,1.354-0.012,2.938-1.361,3.539C35.78,63.219,32.548,61.722,32.548,61.722z"/>
			</g>
			<g>
				<path class="st18" d="M41.362,44.091c-1.74,1.755-3.365,1.699-4.059,3.382c-0.516,1.261,0.086,2.701,1.348,3.219
					c1.256,0.518,2.697-0.083,3.215-1.342C42.821,47.026,41.362,44.091,41.362,44.091z"/>
			</g>
			<g>
				<path class="st18" d="M24.882,53.901c3.635-2.039,4.271-4.703,7.318-5.074c2.273-0.277,4.348,1.348,4.627,3.625
					c0.273,2.279-1.35,4.35-3.627,4.63C28.993,57.589,24.882,53.901,24.882,53.901z"/>
			</g>
			<g>
				<path class="st18" d="M25.954,46.037c2.104-1.355,2.393-2.976,4.199-3.308c1.357-0.248,2.658,0.649,2.908,2.002
					c0.246,1.357-0.65,2.658-2.002,2.908C28.556,48.096,25.954,46.037,25.954,46.037z"/>
			</g>
		</g>
		<g>
			<g>
				<path class="st18" d="M104.56,84.32c-1.08-2.915-0.154-4.739-1.709-6.423c-1.162-1.258-3.125-1.336-4.383-0.175
					c-1.258,1.163-1.338,3.126-0.174,4.384C100.435,84.428,104.56,84.32,104.56,84.32z"/>
			</g>
			<g>
				<path class="st18" d="M117.79,74.37c-2.498-1.814-2.738-3.829-4.949-4.365c-1.654-0.396-3.32,0.621-3.719,2.273
					c-0.4,1.655,0.619,3.319,2.271,3.717C114.446,76.731,117.79,74.37,117.79,74.37z"/>
			</g>
			<g>
				<path class="st18" d="M120.179,62.827c-2.994,0.76-4.699-0.344-6.521,1.013c-1.365,1.019-1.645,2.948-0.631,4.312
					c1.018,1.366,2.947,1.646,4.313,0.632C119.854,66.907,120.179,62.827,120.179,62.827z"/>
			</g>
			<g>
				<path class="st18" d="M92.511,68.452c1.896,1.899,3.662,1.834,4.42,3.661c0.566,1.364-0.082,2.935-1.447,3.503
					c-1.367,0.565-2.934-0.082-3.502-1.449C90.937,71.645,92.511,68.452,92.511,68.452z"/>
			</g>
			<g>
				<path class="st18" d="M109.919,77.699c-1.709-1.782-1.613-3.406-3.277-4.142c-1.25-0.547-2.705,0.019-3.254,1.267
					c-0.549,1.243,0.018,2.7,1.262,3.247C106.95,79.085,109.919,77.699,109.919,77.699z"/>
			</g>
			<g>
				<path class="st18" d="M100.519,60.98c1.949,3.685,4.598,4.388,4.896,7.441c0.219,2.28-1.457,4.314-3.738,4.538
					c-2.285,0.216-4.318-1.459-4.541-3.741C96.733,65,100.519,60.98,100.519,60.98z"/>
			</g>
			<g>
				<path class="st18" d="M108.354,62.249c1.305,2.135,2.916,2.464,3.205,4.278c0.215,1.362-0.715,2.643-2.076,2.858
					c-1.361,0.212-2.639-0.716-2.857-2.074C106.229,64.797,108.354,62.249,108.354,62.249z"/>
			</g>
		</g>
		<g>
			<path class="st18" d="M85.812,63.667c-1.512-2.716-0.875-4.66-2.668-6.086c-1.34-1.066-3.293-0.844-4.359,0.496
				c-1.064,1.341-0.842,3.293,0.496,4.359C81.753,64.404,85.812,63.667,85.812,63.667z"/>
		</g>
		<g>
			<path class="st18" d="M91.546,57.075c-1.998-3.596-1.162-6.17-3.531-8.059c-1.775-1.408-4.357-1.115-5.771,0.66
				c-1.41,1.773-1.117,4.357,0.658,5.77C86.177,58.053,91.546,57.075,91.546,57.075z"/>
		</g>
		<g>
			<path class="st18" d="M95.067,44.905c-2.748-1.412-3.291-3.366-5.559-3.558c-1.697-0.139-3.188,1.121-3.328,2.815
				c-0.143,1.696,1.119,3.186,2.813,3.326C92.124,47.749,95.067,44.905,95.067,44.905z"/>
		</g>
		<g>
			<path class="st18" d="M99.583,35.202c-2.842,1.207-4.691,0.377-6.291,1.996c-1.191,1.215-1.174,3.166,0.037,4.357
				c1.215,1.195,3.164,1.178,4.357-0.033C99.888,39.284,99.583,35.202,99.583,35.202z"/>
		</g>
		<g>
			<path class="st18" d="M75.345,34.946c0.695,4.791,3.318,6.602,2.447,10.061c-0.648,2.584-3.281,4.156-5.869,3.508
				c-2.584-0.656-4.152-3.279-3.506-5.871C69.626,37.87,75.345,34.946,75.345,34.946z"/>
		</g>
		<g>
			<path class="st18" d="M70.188,33.475c-1.223,2.953-0.344,4.869-2.01,6.537c-1.238,1.247-3.27,1.25-4.516,0.009
				c-1.246-1.247-1.248-3.265-0.008-4.519C65.958,33.201,70.188,33.475,70.188,33.475z"/>
		</g>
		<g>
			<path class="st18" d="M51.866,31.831c2.492,3.344,5.213,3.635,5.975,6.607c0.564,2.219-0.781,4.485-3.002,5.056
				c-2.225,0.562-4.49-0.783-5.057-3.005C48.737,36.383,51.866,31.831,51.866,31.831z"/>
		</g>
		<g>
			<path class="st18" d="M50.384,58.137c3.424-2.109,3.934-4.7,6.85-5.18c2.182-0.354,4.246,1.128,4.602,3.311
				c0.355,2.185-1.129,4.246-3.311,4.602C54.493,61.524,50.384,58.137,50.384,58.137z"/>
		</g>
		<g>
			<path class="st18" d="M90.239,29.342c0.918,2.613,2.592,3.341,2.484,5.373c-0.082,1.525-1.383,2.699-2.906,2.617
				c-1.52-0.084-2.691-1.382-2.615-2.904C87.351,31.614,90.239,29.342,90.239,29.342z"/>
		</g>
		<g>
			<path class="st18" d="M79.788,29.515c2.645,3.134,5.342,3.263,6.266,6.132c0.686,2.156-0.498,4.464-2.65,5.151
				c-2.152,0.685-4.455-0.497-5.148-2.646C76.981,34.178,79.788,29.515,79.788,29.515z"/>
		</g>
		<g>
			<path class="st18" d="M58.892,26.332c0.92,2.613,2.594,3.341,2.484,5.372c-0.08,1.525-1.383,2.699-2.904,2.619
				c-1.521-0.084-2.695-1.383-2.617-2.904C56.001,28.604,58.892,26.332,58.892,26.332z"/>
		</g>
		<g>
			<path class="st18" d="M50.868,46.594c3.033-0.398,4.193-2.039,6.373-1.465c1.621,0.434,2.594,2.105,2.162,3.734
				c-0.436,1.625-2.105,2.596-3.734,2.164C52.665,50.228,50.868,46.594,50.868,46.594z"/>
		</g>
	</g>
</g>
</svg>
